<svg xmlns="http://www.w3.org/2000/svg" viewBox="0 0 2000 437.63"><defs><style>.cls-1{fill:#6cbad8;}</style></defs><g id="Marca_y_simbolo" data-name="Marca y simbolo"><path class="cls-1" d="M293,356.85v37.22H233.9V376.3A173.4,173.4,0,0,0,293,356.85Z"/><path class="cls-1" d="M436.12,159.24,408.51,262.31l-17-17-66.81,66.81-.3.33A158.77,158.77,0,1,1,286.08,63.8a175.23,175.23,0,0,0-41.72,45.64,99.79,99.79,0,1,0,33.27,166.28c1.58-1.49,3.09-3,4.58-4.58l67.56-67.56L333,186.87,366.29,178Z"/><path class="cls-1" d="M551.5,202.66A158.84,158.84,0,0,1,316.12,341.79a175.33,175.33,0,0,0,41.61-45.68A99.79,99.79,0,1,0,293,202.68v.24h-.09a83.46,83.46,0,0,1-59,79.76v-80a158.8,158.8,0,0,1,317.6,0Z"/><path class="cls-1" d="M884.68,93.16l-14.23,13.56q-14.51-15.34-32.66-15.34a35.79,35.79,0,0,0-36.29,36.28,38.2,38.2,0,0,0,4.64,19,33.31,33.31,0,0,0,13.14,13,38.14,38.14,0,0,0,18.87,4.73,39,39,0,0,0,16.19-3.31q7.33-3.32,16.11-12l13.79,14.39q-11.84,11.56-22.37,16a61.1,61.1,0,0,1-24,4.47q-24.92,0-40.79-15.8t-15.87-40.5q0-16,7.23-28.41a53.67,53.67,0,0,1,20.7-20,58.45,58.45,0,0,1,29-7.55,61.58,61.58,0,0,1,46.57,21.47Z"/><path class="cls-1" d="M966.62,71.69q22.68,0,39,16.42t16.32,40q0,23.38-16.1,39.59a53,53,0,0,1-39.07,16.2q-24.07,0-40-16.64a57.1,57.1,0,0,1-8.5-67.7,55.94,55.94,0,0,1,48.34-27.9Zm-.22,19.9a33.53,33.53,0,0,0-24.94,10.32q-10.11,10.32-10.11,26.23,0,17.72,12.73,28a34.9,34.9,0,0,0,22.69,8.06,33.15,33.15,0,0,0,24.65-10.46q10.19-10.46,10.18-25.79a35.7,35.7,0,0,0-10.26-25.83A33.46,33.46,0,0,0,966.4,91.59Z"/><path class="cls-1" d="M1054.88,74.38h19.51l45.73,70.32V74.38h20.34V181.24h-19.57l-45.67-70.1v70.1h-20.34Z"/><path class="cls-1" d="M1234.64,88.91l-15.07,13.29q-7.93-11-16.15-11a9.8,9.8,0,0,0-6.55,2.14,6.24,6.24,0,0,0-2.55,4.83,8.23,8.23,0,0,0,1.82,5.09q2.47,3.19,14.92,13.73,11.64,9.74,14.12,12.27a42.52,42.52,0,0,1,8.76,12,29.69,29.69,0,0,1,2.59,12.45q0,13.16-9.09,21.73t-23.71,8.57a35.27,35.27,0,0,1-19.89-5.6q-8.47-5.58-14.51-17.58l17.1-10.31q7.71,14.16,17.75,14.16a13,13,0,0,0,8.8-3,9.06,9.06,0,0,0,3.57-7,12.21,12.21,0,0,0-2.69-7.27q-2.7-3.63-11.87-11.11-17.46-14.23-22.56-22t-5.09-15.44a25.28,25.28,0,0,1,8.47-19.07q8.48-8,20.92-8a33,33,0,0,1,15.23,3.7Q1226.21,79.1,1234.64,88.91Z"/><path class="cls-1" d="M1268.88,74.38h20.42v69.1q0,8.93,1.56,12.63A12.58,12.58,0,0,0,1296,162a16.27,16.27,0,0,0,8.68,2.21,16.87,16.87,0,0,0,9.26-2.47,13,13,0,0,0,5.38-6.27q1.48-3.83,1.48-14.56V74.38h20.42v63.71q0,16.13-1.82,22.37a31.68,31.68,0,0,1-6.93,12.06,32.13,32.13,0,0,1-11.81,8.61,40.13,40.13,0,0,1-15.54,2.8,37.6,37.6,0,0,1-20.24-5.34,31.07,31.07,0,0,1-12.31-13.37q-3.71-8-3.71-27.13Z"/><path class="cls-1" d="M1378.54,74.38h20.34v87.46h29.64v19.4h-50Z"/><path class="cls-1" d="M1447.15,74.38h59.06V94.43h-19.47v86.81h-20.63V94.43h-19Z"/><path class="cls-1" d="M1584.3,71.69q22.68,0,39,16.42t16.32,40q0,23.38-16.1,39.59a53.05,53.05,0,0,1-39.08,16.2q-24.06,0-40-16.64a57.1,57.1,0,0,1-8.5-67.7,55.94,55.94,0,0,1,48.34-27.9Zm-.22,19.9a33.51,33.51,0,0,0-24.94,10.32Q1549,112.23,1549,128.14q0,17.72,12.72,28a34.94,34.94,0,0,0,22.69,8.06,33.16,33.16,0,0,0,24.66-10.46q10.17-10.46,10.18-25.79A35.7,35.7,0,0,0,1609,102.16,33.46,33.46,0,0,0,1584.08,91.59Z"/><path class="cls-1" d="M1673.86,74.38h21.55q17.71,0,25.22,3.16A25.79,25.79,0,0,1,1732.71,88a32.17,32.17,0,0,1,4.57,17.37q0,10.53-5,17.61T1717,133.73l25.31,47.51H1720.1l-24-45.26h-1.87v45.26h-20.34Zm20.34,41.77h6.38q9.7,0,13.36-2.55t3.66-8.46a10.37,10.37,0,0,0-1.81-6.08,10,10,0,0,0-4.86-3.72q-3-1.12-11.15-1.13h-5.58Z"/><path class="cls-1" d="M1772.55,74.38h58.34v19.9h-38.14v19.33h38.14v19.54h-38.14v28.11h38.14v20h-58.34Z"/><path class="cls-1" d="M1919.62,88.91l-15.07,13.29q-7.93-11-16.15-11a9.8,9.8,0,0,0-6.55,2.14,6.24,6.24,0,0,0-2.55,4.83,8.23,8.23,0,0,0,1.82,5.09q2.48,3.19,14.92,13.73,11.64,9.74,14.12,12.27a42.52,42.52,0,0,1,8.76,12,29.69,29.69,0,0,1,2.59,12.45q0,13.16-9.1,21.73t-23.7,8.57a35.27,35.27,0,0,1-19.89-5.6q-8.47-5.58-14.51-17.58l17.1-10.31q7.71,14.16,17.75,14.16a13,13,0,0,0,8.8-3,9.06,9.06,0,0,0,3.57-7,12.21,12.21,0,0,0-2.69-7.27q-2.7-3.63-11.87-11.11-17.46-14.23-22.56-22t-5.09-15.44a25.25,25.25,0,0,1,8.47-19.07q8.48-8,20.92-8a33,33,0,0,1,15.23,3.7Q1911.19,79.1,1919.62,88.91Z"/><path class="cls-1" d="M786.53,252.91h58.34v19.91H806.73v19.32h38.14v19.54H806.73V339.8h38.14v20H786.53Z"/><path class="cls-1" d="M933.6,267.44l-15.07,13.3q-7.92-11-16.15-11.05a9.82,9.82,0,0,0-6.55,2.15,6.24,6.24,0,0,0-2.55,4.83,8.26,8.26,0,0,0,1.82,5.08Q897.58,285,910,295.49q11.64,9.74,14.12,12.27a42.89,42.89,0,0,1,8.77,11.95,29.92,29.92,0,0,1,2.58,12.46q0,13.15-9.09,21.72t-23.71,8.57a35.26,35.26,0,0,1-19.89-5.59q-8.47-5.6-14.51-17.58L885.39,329q7.71,14.17,17.75,14.17a13.12,13.12,0,0,0,8.81-3.05,9.08,9.08,0,0,0,3.56-7,12.18,12.18,0,0,0-2.69-7.26q-2.7-3.63-11.86-11.12-17.48-14.24-22.56-22t-5.1-15.44a25.24,25.24,0,0,1,8.48-19.07q8.47-8,20.91-8a33,33,0,0,1,15.24,3.7Q925.16,257.64,933.6,267.44Z"/><path class="cls-1" d="M958,252.91h59.06v20H997.63v86.82H977V273H958Z"/><path class="cls-1" d="M1046.12,252.91h21.55q17.7,0,25.21,3.16a25.89,25.89,0,0,1,12.09,10.5,32.22,32.22,0,0,1,4.57,17.36q0,10.54-5,17.62t-15.22,10.72l25.32,47.51h-22.24l-24-45.26h-1.86v45.26h-20.34Zm20.34,41.77h6.37c6.47,0,10.93-.84,13.36-2.55s3.66-4.51,3.66-8.45a10.35,10.35,0,0,0-1.81-6.09,10.08,10.08,0,0,0-4.85-3.71q-3-1.14-11.16-1.13h-5.57Z"/><path class="cls-1" d="M1177.33,252.91H1198l41.1,106.87h-21.14l-8.36-22H1166l-8.69,22h-21.14Zm10.44,28.34-14.34,36.68H1202Z"/><path class="cls-1" d="M1257.94,252.91H1317v20h-19.47v86.82H1276.9V273h-19Z"/><path class="cls-1" d="M1344.71,252.91h58.34v19.91h-38.14v19.32h38.14v19.54h-38.14V339.8h38.14v20h-58.34Zm32.76-36.76h23.47l-26.59,28.48h-14.24Z"/><path class="cls-1" d="M1534.35,270.35,1520,284.51q-13.59-14.37-31.7-14.38-15.78,0-26.43,10.46A34.32,34.32,0,0,0,1451.24,306a35.18,35.18,0,0,0,11.06,26.22q11,10.75,27.27,10.76,10.54,0,17.78-4.44T1519,324.69h-31V305.58h53.76l.15,4.51a52.28,52.28,0,0,1-7.27,26.59,50.67,50.67,0,0,1-18.81,19.17q-11.55,6.61-27.1,6.61-16.63,0-29.68-7.22a52.92,52.92,0,0,1-20.63-20.6,57.43,57.43,0,0,1-7.59-28.84,53.58,53.58,0,0,1,14-36.9q16.63-18.67,43.3-18.67a65.93,65.93,0,0,1,26.08,5.15Q1524.55,259.75,1534.35,270.35Z"/><path class="cls-1" d="M1572.88,252.91h20.2V359.78h-20.2Z"/><path class="cls-1" d="M1727.87,271.69l-14.23,13.57q-14.51-15.35-32.66-15.35a35.79,35.79,0,0,0-36.29,36.29,38.13,38.13,0,0,0,4.65,19,33.22,33.22,0,0,0,13.13,13,38.14,38.14,0,0,0,18.87,4.72,38.83,38.83,0,0,0,16.19-3.31q7.34-3.3,16.11-12L1727.43,342q-11.84,11.55-22.37,16a61.25,61.25,0,0,1-24,4.46q-24.91,0-40.79-15.8t-15.87-40.5q0-16,7.23-28.4a53.74,53.74,0,0,1,20.7-20,58.34,58.34,0,0,1,29-7.55,61.57,61.57,0,0,1,46.57,21.46Z"/><path class="cls-1" d="M1809.81,250.23q22.68,0,39,16.41t16.32,40q0,23.4-16.1,39.6A53,53,0,0,1,1810,362.46q-24.06,0-40-16.63a56.14,56.14,0,0,1,39.84-95.6Zm-.22,19.9a33.53,33.53,0,0,0-24.94,10.32q-10.11,10.31-10.11,26.22,0,17.73,12.73,28a34.85,34.85,0,0,0,22.68,8.07,33.16,33.16,0,0,0,24.66-10.46q10.19-10.47,10.18-25.79a35.7,35.7,0,0,0-10.26-25.83A33.42,33.42,0,0,0,1809.59,270.13Z"/><path class="cls-1" d="M1954.08,267.44,1939,280.74q-7.93-11-16.16-11.05a9.82,9.82,0,0,0-6.55,2.15,6.24,6.24,0,0,0-2.55,4.83,8.26,8.26,0,0,0,1.82,5.08q2.48,3.21,14.92,13.74,11.64,9.74,14.12,12.27a42.89,42.89,0,0,1,8.77,11.95,29.92,29.92,0,0,1,2.58,12.46q0,13.15-9.09,21.72t-23.71,8.57a35.26,35.26,0,0,1-19.89-5.59q-8.47-5.6-14.51-17.58l17.1-10.32q7.71,14.17,17.75,14.17a13.12,13.12,0,0,0,8.81-3.05,9.08,9.08,0,0,0,3.56-7,12.11,12.11,0,0,0-2.69-7.26q-2.68-3.63-11.86-11.12-17.48-14.24-22.56-22t-5.09-15.44a25.23,25.23,0,0,1,8.47-19.07q8.48-8,20.91-8a33,33,0,0,1,15.24,3.7Q1945.64,257.64,1954.08,267.44Z"/><rect class="cls-1" x="632.62" y="43.55" width="21.26" height="350.51"/></g></svg>